<svg width="420" height="72" viewBox="0 0 420 72" fill="none" xmlns="http://www.w3.org/2000/svg">
<path d="M29.6866 0.504868H32.4532C32.7899 0.504868 33.0634 0.77838 33.0634 1.11501V21.4286H43.8146C44.1512 21.4286 44.4247 21.7021 44.4247 22.0387V24.5214C44.4247 24.858 44.1512 25.1315 43.8146 25.1315H29.6866C29.3499 25.1315 29.0764 24.858 29.0764 24.5214V1.11501C29.0764 0.77838 29.3499 0.504868 29.6866 0.504868Z" fill="#144E40"/>
<path d="M82.0012 0.504868H85.5779C86.0302 0.504868 86.43 0.767861 86.6193 1.17813L94.5512 19.0301H94.6143C97.2863 13.097 99.9373 7.14281 102.578 1.17813C102.757 0.767861 103.167 0.504868 103.619 0.504868H107.196C107.533 0.504868 107.806 0.77838 107.806 1.11501V24.5214C107.806 24.858 107.533 25.1315 107.196 25.1315H104.366C104.029 25.1315 103.756 24.858 103.756 24.5214V7.98439H103.661L96.3922 24.4478C96.2133 24.858 95.8031 25.121 95.3507 25.121H93.8043C93.352 25.121 92.9417 24.858 92.7629 24.4372C90.3644 18.9565 87.9448 13.4652 85.5148 7.98439H85.4201V24.5109C85.4201 24.8475 85.1466 25.121 84.8099 25.121H81.9801C81.6435 25.121 81.37 24.8475 81.37 24.5109V1.11501C81.37 0.77838 81.6435 0.504868 81.9801 0.504868H82.0012Z" fill="#144E40"/>
<path d="M304.431 0.504868H308.007C308.46 0.504868 308.859 0.767861 309.049 1.17813L316.981 19.0301H317.044C319.716 13.097 322.367 7.14281 325.007 1.17813C325.186 0.767861 325.596 0.504868 326.049 0.504868H329.625C329.962 0.504868 330.235 0.77838 330.235 1.11501V24.5214C330.235 24.858 329.962 25.1315 329.625 25.1315H326.795C326.459 25.1315 326.185 24.858 326.185 24.5214V7.98439H326.091L318.821 24.4478C318.643 24.858 318.232 25.121 317.78 25.121H316.234C315.781 25.121 315.371 24.858 315.192 24.4372C312.794 18.9565 310.374 13.4652 307.944 7.98439H307.849V24.5109C307.849 24.8475 307.576 25.121 307.239 25.121H304.409C304.073 25.121 303.799 24.8475 303.799 24.5109V1.11501C303.799 0.77838 304.073 0.504868 304.409 0.504868H304.431Z" fill="#144E40"/>
<path d="M116.78 12.8446C116.78 5.3335 122.366 0 129.214 0C136.062 0 141.617 5.45974 141.617 12.8446C141.617 20.2294 136.125 25.6576 129.182 25.6576C122.239 25.6576 116.78 20.3872 116.78 12.8446ZM129.245 21.9021C133.79 21.9021 137.419 18.0834 137.419 12.8446C137.419 7.60576 133.853 3.75554 129.245 3.75554C124.638 3.75554 120.977 7.5742 120.977 12.8446C120.977 18.115 124.701 21.9021 129.245 21.9021Z" fill="#144E40"/>
<path d="M191.606 0.504868H194.573C194.952 0.504868 195.299 0.694223 195.509 0.999295C199.401 6.66943 203.273 12.2659 207.165 18.2411H207.228V1.11501C207.228 0.77838 207.502 0.504868 207.838 0.504868H210.605C210.942 0.504868 211.215 0.77838 211.215 1.11501V24.5214C211.215 24.858 210.942 25.1315 210.605 25.1315H207.638C207.26 25.1315 206.913 24.9422 206.702 24.6371C202.862 19.0301 198.939 13.5704 195.046 7.67932H194.983V24.5214C194.983 24.858 194.71 25.1315 194.373 25.1315H191.606C191.27 25.1315 190.996 24.858 190.996 24.5214V1.11501C190.996 0.77838 191.27 0.504868 191.606 0.504868Z" fill="#144E40"/>
<path d="M245.257 3.55559V1.11501C245.257 0.77838 245.531 0.504868 245.867 0.504868H264.003C264.34 0.504868 264.613 0.77838 264.613 1.11501V3.56611C264.613 3.90274 264.34 4.17625 264.003 4.17625H256.913V24.5214C256.913 24.858 256.639 25.1315 256.303 25.1315H253.536C253.199 25.1315 252.926 24.858 252.926 24.5214V4.16573H245.867C245.531 4.16573 245.257 3.89222 245.257 3.55559Z" fill="#144E40"/>
<path d="M270.031 12.8446C270.031 5.3335 275.617 0 282.465 0C289.314 0 294.868 5.45974 294.868 12.8446C294.868 20.2294 289.377 25.6576 282.434 25.6576C275.491 25.6576 270.031 20.3872 270.031 12.8446ZM282.497 21.9021C287.041 21.9021 290.671 18.0834 290.671 12.8446C290.671 7.60576 287.105 3.75554 282.497 3.75554C277.889 3.75554 274.228 7.5742 274.228 12.8446C274.228 18.115 277.952 21.9021 282.497 21.9021Z" fill="#144E40"/>
<path d="M345.583 16.0741C342.88 11.1088 340.145 6.14344 337.41 1.17813C337.241 0.873058 337.462 0.504868 337.809 0.504868H340.808C341.134 0.504868 341.428 0.683703 341.575 0.967735L347.761 12.592H347.824C349.918 8.71025 351.979 4.84951 354.041 0.967735C354.189 0.683703 354.494 0.504868 354.809 0.504868H357.776C358.123 0.504868 358.344 0.873058 358.176 1.17813C355.451 6.11188 352.737 11.0772 350.012 16.0425C349.854 16.3265 349.77 16.6421 349.77 16.9682V24.5214C349.77 24.858 349.497 25.1315 349.16 25.1315H346.393C346.057 25.1315 345.783 24.858 345.783 24.5214V16.9998C345.783 16.6737 345.699 16.3581 345.552 16.0846L345.583 16.0741Z" fill="#144E40"/>
<path d="M0.00012207 49.3166V46.8655C0.00012207 46.5288 0.273635 46.2553 0.610266 46.2553H18.7463C19.0829 46.2553 19.3564 46.5288 19.3564 46.8655V49.3166C19.3564 49.6532 19.0829 49.9267 18.7463 49.9267H11.656V70.2719C11.656 70.6085 11.3825 70.882 11.0458 70.882H8.27915C7.94251 70.882 7.669 70.6085 7.669 70.2719V49.9267H0.610266C0.273635 49.9267 0.00012207 49.6532 0.00012207 49.3166Z" fill="#144E40"/>
<path d="M25.3317 46.8761C25.3317 46.5394 25.6052 46.2659 25.9418 46.2659H34.5785C37.0401 46.2659 42.9733 47.5283 42.9733 53.9979C42.9733 58.5425 40.2592 60.8778 37.1979 61.4775V61.509L42.8786 69.9774C43.1311 70.3561 42.8575 70.8716 42.3947 70.8716H39.5018C39.1862 70.8716 38.8916 70.7138 38.7128 70.4508L32.969 61.7825H29.3081V70.2614C29.3081 70.5981 29.0346 70.8716 28.698 70.8716H25.9313C25.5947 70.8716 25.3212 70.5981 25.3212 70.2614V46.855L25.3317 46.8761ZM33.9158 58.2584C36.2196 58.2584 38.8075 57.217 38.8075 54.0926C38.8075 50.9682 36.188 49.8637 33.8842 49.8637H29.3081V58.2584H33.9158Z" fill="#144E40"/>
<path d="M81.5385 46.2659H84.3052C84.6418 46.2659 84.9153 46.5394 84.9153 46.8761V70.2825C84.9153 70.6191 84.6418 70.8926 84.3052 70.8926H81.5385C81.2019 70.8926 80.9283 70.6191 80.9283 70.2825V46.8761C80.9283 46.5394 81.2019 46.2659 81.5385 46.2659Z" fill="#144E40"/>
<path d="M95.9295 46.2659H98.896C99.2748 46.2659 99.6219 46.4553 99.8323 46.7604C103.725 52.4305 107.596 58.027 111.488 64.0022H111.551V46.8761C111.551 46.5394 111.825 46.2659 112.161 46.2659H114.928C115.265 46.2659 115.538 46.5394 115.538 46.8761V70.2825C115.538 70.6191 115.265 70.8926 114.928 70.8926H111.962C111.583 70.8926 111.236 70.7033 111.025 70.3982C107.186 64.7912 103.262 59.3314 99.3694 53.4404H99.3063V70.2825C99.3063 70.6191 99.0328 70.8926 98.6962 70.8926H95.9295C95.5929 70.8926 95.3193 70.6191 95.3193 70.2825V46.8761C95.3193 46.5394 95.5929 46.2659 95.9295 46.2659Z" fill="#144E40"/>
<path d="M126.542 46.2659H129.308C129.645 46.2659 129.919 46.5394 129.919 46.8761V70.2825C129.919 70.6191 129.645 70.8926 129.308 70.8926H126.542C126.205 70.8926 125.932 70.6191 125.932 70.2825V46.8761C125.932 46.5394 126.205 46.2659 126.542 46.2659Z" fill="#144E40"/>
<path d="M140.933 46.2659H143.899C144.278 46.2659 144.625 46.4553 144.836 46.7604C148.728 52.4305 152.599 58.027 156.491 64.0022H156.555V46.8761C156.555 46.5394 156.828 46.2659 157.165 46.2659H159.931C160.268 46.2659 160.542 46.5394 160.542 46.8761V70.2825C160.542 70.6191 160.268 70.8926 159.931 70.8926H156.965C156.586 70.8926 156.239 70.7033 156.029 70.3982C152.189 64.7912 148.265 59.3314 144.373 53.4404H144.31V70.2825C144.31 70.6191 144.036 70.8926 143.699 70.8926H140.933C140.596 70.8926 140.323 70.6191 140.323 70.2825V46.8761C140.323 46.5394 140.596 46.2659 140.933 46.2659Z" fill="#144E40"/>
<path d="M169.526 58.6372C169.526 50.6527 175.206 45.761 181.96 45.761C186.978 45.761 191.196 48.4856 192.943 52.8198C193.058 53.1038 192.911 53.4194 192.627 53.5351L189.955 54.6186C189.681 54.7343 189.376 54.5976 189.25 54.3346C187.872 51.4206 185.368 49.5166 181.949 49.5166C177.405 49.5166 173.681 52.925 173.681 58.7318C173.681 65.233 178.446 67.6631 182.328 67.6631C186.21 67.6631 189.208 65.233 189.745 61.6353H183.191C182.886 61.6353 182.644 61.3933 182.644 61.0883V58.9107C182.644 58.6056 182.886 58.3636 183.191 58.3636H192.585C193.216 58.3636 193.721 58.8686 193.721 59.4998V70.3456C193.721 70.6507 193.479 70.8926 193.174 70.8926H191.154C190.86 70.8926 190.618 70.6612 190.607 70.3666L190.439 66.6321H190.281C188.545 69.6934 185.673 71.4291 181.634 71.4291C174.565 71.4291 169.515 66.1272 169.515 58.6477L169.526 58.6372Z" fill="#144E40"/>
<path d="M216.791 46.2659H219.557C219.894 46.2659 220.168 46.5394 220.168 46.8761V70.2825C220.168 70.6191 219.894 70.8926 219.557 70.8926H216.791C216.454 70.8926 216.181 70.6191 216.181 70.2825V46.8761C216.181 46.5394 216.454 46.2659 216.791 46.2659Z" fill="#144E40"/>
<path d="M231.182 46.2659H234.148C234.527 46.2659 234.874 46.4553 235.085 46.7604C238.977 52.4305 242.848 58.027 246.74 64.0022H246.803V46.8761C246.803 46.5394 247.077 46.2659 247.414 46.2659H250.18C250.517 46.2659 250.79 46.5394 250.79 46.8761V70.2825C250.79 70.6191 250.517 70.8926 250.18 70.8926H247.214C246.835 70.8926 246.488 70.7033 246.277 70.3982C242.438 64.7912 238.514 59.3314 234.622 53.4404H234.559V70.2825C234.559 70.6191 234.285 70.8926 233.948 70.8926H231.182C230.845 70.8926 230.572 70.6191 230.572 70.2825V46.8761C230.572 46.5394 230.845 46.2659 231.182 46.2659Z" fill="#144E40"/>
<path d="M260.426 63.7918L261.994 63.2448C262.572 63.0449 263.193 63.3395 263.424 63.9181C264.561 66.7479 266.738 67.7893 268.947 67.7893C271.283 67.7893 273.555 66.6532 273.555 64.2547C273.555 61.8562 271.283 61.1619 269.074 60.4992L266.864 59.8048C264.434 59.0474 260.205 57.4695 260.205 52.8303C260.205 48.1911 264.056 45.761 268.569 45.761C272.482 45.761 275.375 47.7598 276.606 50.4528C276.869 51.0314 276.574 51.7047 275.985 51.9466L274.386 52.5988C273.839 52.8198 273.218 52.5778 272.945 52.0518C272.051 50.3792 270.525 49.3588 268.442 49.3588C266.075 49.3588 264.371 50.6527 264.371 52.5147C264.371 54.8501 267.085 55.7968 268.916 56.3965L271.472 57.217C273.839 57.9744 277.815 59.1421 277.815 63.7497C277.815 68.3574 274.186 71.4186 268.979 71.4186C264.855 71.4186 261.236 69.4094 259.721 65.2751C259.501 64.6755 259.816 64.0127 260.416 63.8023L260.426 63.7918Z" fill="#144E40"/>
<path d="M283.654 49.3166V46.8655C283.654 46.5288 283.928 46.2553 284.264 46.2553H302.4C302.737 46.2553 303.01 46.5288 303.01 46.8655V49.3166C303.01 49.6532 302.737 49.9267 302.4 49.9267H295.31V70.2719C295.31 70.6085 295.036 70.882 294.7 70.882H291.933C291.596 70.882 291.323 70.6085 291.323 70.2719V49.9267H284.264C283.928 49.9267 283.654 49.6532 283.654 49.3166Z" fill="#144E40"/>
<path d="M311.626 46.2659H314.393C314.729 46.2659 315.003 46.5394 315.003 46.8761V70.2825C315.003 70.6191 314.729 70.8926 314.393 70.8926H311.626C311.289 70.8926 311.016 70.6191 311.016 70.2825V46.8761C311.016 46.5394 311.289 46.2659 311.626 46.2659Z" fill="#144E40"/>
<path d="M323.04 49.3166V46.8655C323.04 46.5288 323.313 46.2553 323.65 46.2553H341.786C342.122 46.2553 342.396 46.5288 342.396 46.8655V49.3166C342.396 49.6532 342.122 49.9267 341.786 49.9267H334.695V70.2719C334.695 70.6085 334.422 70.882 334.085 70.882H331.319C330.982 70.882 330.708 70.6085 330.708 70.2719V49.9267H323.65C323.313 49.9267 323.04 49.6532 323.04 49.3166Z" fill="#144E40"/>
<path d="M350.149 61.4459V46.8761C350.149 46.5394 350.423 46.2659 350.759 46.2659H353.526C353.863 46.2659 354.136 46.5394 354.136 46.8761V61.1303C354.136 65.2014 355.683 67.6946 359.407 67.6946C363.13 67.6946 364.677 65.2014 364.677 61.1303V46.8761C364.677 46.5394 364.95 46.2659 365.287 46.2659H368.022C368.359 46.2659 368.632 46.5394 368.632 46.8761V61.4459C368.632 65.9273 367.054 71.4186 359.354 71.4186C351.653 71.4186 350.17 66.2744 350.17 61.4459H350.149Z" fill="#144E40"/>
<path d="M376.406 49.3166V46.8655C376.406 46.5288 376.68 46.2553 377.017 46.2553H395.153C395.489 46.2553 395.763 46.5288 395.763 46.8655V49.3166C395.763 49.6532 395.489 49.9267 395.153 49.9267H389.198C388.578 49.9267 388.062 50.4422 388.062 51.0628V70.2719C388.062 70.6085 387.789 70.882 387.452 70.882H384.685C384.349 70.882 384.075 70.6085 384.075 70.2719V51.0628C384.075 50.4422 383.56 49.9267 382.939 49.9267H377.017C376.68 49.9267 376.406 49.6532 376.406 49.3166Z" fill="#144E40"/>
<path d="M404.378 46.2659H419.074C419.411 46.2659 419.685 46.5394 419.685 46.8761V49.3272C419.685 49.6638 419.411 49.9373 419.074 49.9373H408.355C408.018 49.9373 407.745 50.2108 407.745 50.5475V55.8389C407.745 56.1755 408.018 56.449 408.355 56.449H418.443C418.78 56.449 419.053 56.7225 419.053 57.0592V59.6681C419.053 60.0047 418.78 60.2782 418.443 60.2782H408.355C408.018 60.2782 407.745 60.5517 407.745 60.8883V66.6216C407.745 66.9582 408.018 67.2317 408.355 67.2317H419.39C419.727 67.2317 420 67.5053 420 67.8419V70.3245C420 70.6612 419.727 70.9347 419.39 70.9347H404.378C404.042 70.9347 403.768 70.6612 403.768 70.3245V46.9182C403.768 46.5815 404.042 46.308 404.378 46.308V46.2659Z" fill="#144E40"/>
<path d="M0.231445 9.33092V24.5109C0.231445 24.8475 0.504958 25.121 0.841589 25.121H3.60828C3.94491 25.121 4.21842 24.8475 4.21842 24.5109V18.7987C4.21842 18.462 4.49193 18.1885 4.82857 18.1885H14.5593C14.8959 18.1885 15.1695 18.462 15.1695 18.7987V24.5109C15.1695 24.8475 15.443 25.121 15.7796 25.121H18.5463C18.8829 25.121 19.1564 24.8475 19.1564 24.5109V9.33092C19.1564 4.46028 15.201 0.504868 10.3304 0.504868H9.08905C4.21842 0.504868 0.263004 4.46028 0.263004 9.33092H0.231445ZM14.5383 14.3383H4.80753C4.47089 14.3383 4.19738 14.0648 4.19738 13.7282V9.94106C4.19738 6.9219 6.64848 4.4708 9.66764 4.4708C12.6868 4.4708 15.1379 6.9219 15.1379 9.94106V13.7282C15.1379 14.0648 14.8644 14.3383 14.5278 14.3383H14.5383Z" fill="#144E40"/>
<path d="M52.6619 9.33092V24.5109C52.6619 24.8475 52.9354 25.121 53.272 25.121H56.0387C56.3753 25.121 56.6488 24.8475 56.6488 24.5109V18.7987C56.6488 18.462 56.9224 18.1885 57.259 18.1885H66.9897C67.3264 18.1885 67.5999 18.462 67.5999 18.7987V24.5109C67.5999 24.8475 67.8734 25.121 68.21 25.121H70.9767C71.3133 25.121 71.5869 24.8475 71.5869 24.5109V9.33092C71.5869 4.46028 67.6314 0.504868 62.7608 0.504868H61.5195C56.6488 0.504868 52.6934 4.46028 52.6934 9.33092H52.6619ZM66.9792 14.3383H57.2485C56.9118 14.3383 56.6383 14.0648 56.6383 13.7282V9.94106C56.6383 6.9219 59.0894 4.4708 62.1086 4.4708C65.1277 4.4708 67.5788 6.9219 67.5788 9.94106V13.7282C67.5788 14.0648 67.3053 14.3383 66.9687 14.3383H66.9792Z" fill="#144E40"/>
<path d="M162.109 9.33092V24.5109C162.109 24.8475 162.383 25.121 162.719 25.121H165.486C165.823 25.121 166.096 24.8475 166.096 24.5109V18.7987C166.096 18.462 166.37 18.1885 166.706 18.1885H176.437C176.774 18.1885 177.047 18.462 177.047 18.7987V24.5109C177.047 24.8475 177.321 25.121 177.657 25.121H180.424C180.761 25.121 181.034 24.8475 181.034 24.5109V9.33092C181.034 4.46028 177.079 0.504868 172.208 0.504868H170.967C166.096 0.504868 162.141 4.46028 162.141 9.33092H162.109ZM176.416 14.3383H166.685C166.349 14.3383 166.075 14.0648 166.075 13.7282V9.94106C166.075 6.9219 168.526 4.4708 171.545 4.4708C174.565 4.4708 177.016 6.9219 177.016 9.94106V13.7282C177.016 14.0648 176.742 14.3383 176.406 14.3383H176.416Z" fill="#144E40"/>
<path d="M221.619 9.33092V24.5109C221.619 24.8475 221.893 25.121 222.23 25.121H224.996C225.333 25.121 225.606 24.8475 225.606 24.5109V18.7987C225.606 18.462 225.88 18.1885 226.216 18.1885H235.947C236.284 18.1885 236.557 18.462 236.557 18.7987V24.5109C236.557 24.8475 236.831 25.121 237.168 25.121H239.934C240.271 25.121 240.544 24.8475 240.544 24.5109V9.33092C240.544 4.46028 236.589 0.504868 231.718 0.504868H230.477C225.606 0.504868 221.651 4.46028 221.651 9.33092H221.619ZM235.937 14.3383H226.206C225.869 14.3383 225.596 14.0648 225.596 13.7282V9.94106C225.596 6.9219 228.047 4.4708 231.066 4.4708C234.085 4.4708 236.536 6.9219 236.536 9.94106V13.7282C236.536 14.0648 236.263 14.3383 235.926 14.3383H235.937Z" fill="#144E40"/>
<path d="M51.7465 55.092V70.2719C51.7465 70.6086 52.02 70.8821 52.3566 70.8821H55.1233C55.4599 70.8821 55.7334 70.6086 55.7334 70.2719V64.5597C55.7334 64.2231 56.007 63.9496 56.3436 63.9496H66.0743C66.411 63.9496 66.6845 64.2231 66.6845 64.5597V70.2719C66.6845 70.6086 66.958 70.8821 67.2946 70.8821H70.0613C70.3979 70.8821 70.6714 70.6086 70.6714 70.2719V55.092C70.6714 50.2213 66.716 46.2659 61.8454 46.2659H60.6041C55.7334 46.2659 51.778 50.2213 51.778 55.092H51.7465ZM66.0533 60.0994H56.3225C55.9859 60.0994 55.7124 59.8259 55.7124 59.4892V55.7021C55.7124 52.683 58.1635 50.2319 61.1827 50.2319C64.2018 50.2319 66.6529 52.683 66.6529 55.7021V59.4892C66.6529 59.8259 66.3794 60.0994 66.0428 60.0994H66.0533Z" fill="#144E40"/>
</svg>
