<svg width="420" height="72" viewBox="0 0 420 72" fill="none" xmlns="http://www.w3.org/2000/svg">
<g clip-path="url(#clip0_4842_265)">
<path d="M29.6869 0.502213H32.4537C32.7903 0.502213 33.0639 0.774286 33.0639 1.10915V21.3158H43.8153C44.1519 21.3158 44.4254 21.5879 44.4254 21.9228V24.3924C44.4254 24.7272 44.1519 24.9993 43.8153 24.9993H29.6869C29.3503 24.9993 29.0768 24.7272 29.0768 24.3924V1.10915C29.0768 0.774286 29.3503 0.502213 29.6869 0.502213Z" fill="#DDF4F3"/>
<path d="M82.0031 0.502213H85.5799C86.0323 0.502213 86.4321 0.763822 86.6214 1.17193L94.5535 18.93H94.6166C97.2887 13.0281 99.9397 7.10523 102.58 1.17193C102.759 0.763822 103.169 0.502213 103.622 0.502213H107.199C107.535 0.502213 107.809 0.774286 107.809 1.10915V24.3924C107.809 24.7272 107.535 24.9993 107.199 24.9993H104.369C104.032 24.9993 103.758 24.7272 103.758 24.3924V7.94237H103.664L96.3945 24.3191C96.2156 24.7272 95.8054 24.9888 95.353 24.9888H93.8066C93.3542 24.9888 92.9439 24.7272 92.7651 24.3086C90.3665 18.8567 87.9469 13.3943 85.5168 7.94237H85.4221V24.3819C85.4221 24.7167 85.1486 24.9888 84.812 24.9888H81.9821C81.6455 24.9888 81.3719 24.7167 81.3719 24.3819V1.10915C81.3719 0.774286 81.6455 0.502213 81.9821 0.502213H82.0031Z" fill="#DDF4F3"/>
<path d="M304.438 0.502213H308.015C308.467 0.502213 308.867 0.763822 309.056 1.17193L316.988 18.93H317.051C319.723 13.0281 322.374 7.10523 325.015 1.17193C325.194 0.763822 325.604 0.502213 326.056 0.502213H329.633C329.97 0.502213 330.243 0.774286 330.243 1.10915V24.3924C330.243 24.7272 329.97 24.9993 329.633 24.9993H326.803C326.467 24.9993 326.193 24.7272 326.193 24.3924V7.94237H326.098L318.829 24.3191C318.65 24.7272 318.24 24.9888 317.788 24.9888H316.241C315.789 24.9888 315.379 24.7272 315.2 24.3086C312.801 18.8567 310.382 13.3943 307.952 7.94237H307.857V24.3819C307.857 24.7167 307.583 24.9888 307.247 24.9888H304.417C304.08 24.9888 303.807 24.7167 303.807 24.3819V1.10915C303.807 0.774286 304.08 0.502213 304.417 0.502213H304.438Z" fill="#DDF4F3"/>
<path d="M116.782 12.777C116.782 5.30543 122.368 0 129.217 0C136.065 0 141.62 5.431 141.62 12.777C141.62 20.123 136.128 25.5226 129.185 25.5226C122.242 25.5226 116.782 20.2799 116.782 12.777ZM129.248 21.7868C133.793 21.7868 137.422 17.9882 137.422 12.777C137.422 7.56573 133.856 3.73578 129.248 3.73578C124.64 3.73578 120.979 7.53434 120.979 12.777C120.979 18.0196 124.704 21.7868 129.248 21.7868Z" fill="#DDF4F3"/>
<path d="M191.611 0.502213H194.578C194.957 0.502213 195.304 0.690571 195.514 0.994038C199.407 6.63433 203.278 12.2014 207.17 18.1451H207.234V1.10915C207.234 0.774286 207.507 0.502213 207.844 0.502213H210.61C210.947 0.502213 211.221 0.774286 211.221 1.10915V24.3924C211.221 24.7272 210.947 24.9993 210.61 24.9993H207.644C207.265 24.9993 206.918 24.8109 206.708 24.5075C202.868 18.93 198.944 13.499 195.051 7.63891H194.988V24.3924C194.988 24.7272 194.715 24.9993 194.378 24.9993H191.611C191.275 24.9993 191.001 24.7272 191.001 24.3924V1.10915C191.001 0.774286 191.275 0.502213 191.611 0.502213Z" fill="#DDF4F3"/>
<path d="M245.263 3.53688V1.10915C245.263 0.774286 245.536 0.502213 245.873 0.502213H264.009C264.346 0.502213 264.619 0.774286 264.619 1.10915V3.54734C264.619 3.8822 264.346 4.15427 264.009 4.15427H256.919V24.3924C256.919 24.7272 256.645 24.9993 256.309 24.9993H253.542C253.205 24.9993 252.932 24.7272 252.932 24.3924V4.14381H245.873C245.536 4.14381 245.263 3.87174 245.263 3.53688Z" fill="#DDF4F3"/>
<path d="M270.038 12.777C270.038 5.30543 275.624 0 282.472 0C289.321 0 294.875 5.431 294.875 12.777C294.875 20.123 289.384 25.5226 282.441 25.5226C275.498 25.5226 270.038 20.2799 270.038 12.777ZM282.504 21.7868C287.049 21.7868 290.678 17.9882 290.678 12.777C290.678 7.56573 287.112 3.73578 282.504 3.73578C277.896 3.73578 274.235 7.53434 274.235 12.777C274.235 18.0196 277.959 21.7868 282.504 21.7868Z" fill="#DDF4F3"/>
<path d="M345.592 15.9895C342.888 11.0503 340.153 6.11111 337.418 1.17193C337.249 0.868465 337.47 0.502213 337.817 0.502213H340.816C341.142 0.502213 341.436 0.680107 341.584 0.962644L347.769 12.5258H347.832C349.926 8.66442 351.988 4.82399 354.05 0.962644C354.197 0.680107 354.502 0.502213 354.818 0.502213H357.784C358.132 0.502213 358.352 0.868465 358.184 1.17193C355.459 6.07972 352.745 11.0189 350.021 15.9581C349.863 16.2406 349.779 16.5545 349.779 16.8789V24.3924C349.779 24.7272 349.505 24.9993 349.168 24.9993H346.402C346.065 24.9993 345.792 24.7272 345.792 24.3924V16.9103C345.792 16.5859 345.707 16.272 345.56 15.9999L345.592 15.9895Z" fill="#DDF4F3"/>
<path d="M0 49.0568V46.6186C0 46.2838 0.27352 46.0117 0.610159 46.0117H18.7466C19.0833 46.0117 19.3568 46.2838 19.3568 46.6186V49.0568C19.3568 49.3917 19.0833 49.6638 18.7466 49.6638H11.6561V69.9019C11.6561 70.2367 11.3826 70.5088 11.046 70.5088H8.27923C7.94259 70.5088 7.66907 70.2367 7.66907 69.9019V49.6638H0.610159C0.27352 49.6638 0 49.3917 0 49.0568Z" fill="#DDF4F3"/>
<path d="M25.3318 46.6292C25.3318 46.2943 25.6053 46.0222 25.942 46.0222H34.5789C37.0406 46.0222 42.9738 47.278 42.9738 53.7136C42.9738 58.2342 40.2597 60.5572 37.1984 61.1537V61.1851L42.8791 69.6089C43.1316 69.9856 42.8581 70.4984 42.3952 70.4984H39.5022C39.1866 70.4984 38.8921 70.3414 38.7132 70.0798L32.9693 61.4572H29.3084V69.8915C29.3084 70.2263 29.0348 70.4984 28.6982 70.4984H25.9314C25.5948 70.4984 25.3213 70.2263 25.3213 69.8915V46.6083L25.3318 46.6292ZM33.9161 57.9516C36.22 57.9516 38.8079 56.9156 38.8079 53.8077C38.8079 50.6998 36.1884 49.6011 33.8846 49.6011H29.3084V57.9516H33.9161Z" fill="#DDF4F3"/>
<path d="M81.5405 46.0222H84.3073C84.6439 46.0222 84.9174 46.2943 84.9174 46.6292V69.9124C84.9174 70.2472 84.6439 70.5193 84.3073 70.5193H81.5405C81.2039 70.5193 80.9304 70.2472 80.9304 69.9124V46.6292C80.9304 46.2943 81.2039 46.0222 81.5405 46.0222Z" fill="#DDF4F3"/>
<path d="M95.9322 46.0222H98.8989C99.2776 46.0222 99.6248 46.2106 99.8352 46.5141C103.728 52.1544 107.599 57.7214 111.491 63.6652H111.554V46.6292C111.554 46.2943 111.828 46.0222 112.165 46.0222H114.931C115.268 46.0222 115.542 46.2943 115.542 46.6292V69.9124C115.542 70.2472 115.268 70.5193 114.931 70.5193H111.965C111.586 70.5193 111.239 70.331 111.028 70.0275C107.189 64.45 103.265 59.019 99.3723 53.1589H99.3092V69.9124C99.3092 70.2472 99.0356 70.5193 98.699 70.5193H95.9322C95.5956 70.5193 95.3221 70.2472 95.3221 69.9124V46.6292C95.3221 46.2943 95.5956 46.0222 95.9322 46.0222Z" fill="#DDF4F3"/>
<path d="M126.545 46.0222H129.312C129.648 46.0222 129.922 46.2943 129.922 46.6292V69.9124C129.922 70.2472 129.648 70.5193 129.312 70.5193H126.545C126.208 70.5193 125.935 70.2472 125.935 69.9124V46.6292C125.935 46.2943 126.208 46.0222 126.545 46.0222Z" fill="#DDF4F3"/>
<path d="M140.936 46.0222H143.903C144.282 46.0222 144.629 46.2106 144.839 46.5141C148.732 52.1544 152.603 57.7214 156.495 63.6652H156.559V46.6292C156.559 46.2943 156.832 46.0222 157.169 46.0222H159.935C160.272 46.0222 160.546 46.2943 160.546 46.6292V69.9124C160.546 70.2472 160.272 70.5193 159.935 70.5193H156.969C156.59 70.5193 156.243 70.331 156.033 70.0275C152.193 64.45 148.269 59.019 144.376 53.1589H144.313V69.9124C144.313 70.2472 144.04 70.5193 143.703 70.5193H140.936C140.6 70.5193 140.326 70.2472 140.326 69.9124V46.6292C140.326 46.2943 140.6 46.0222 140.936 46.0222Z" fill="#DDF4F3"/>
<path d="M169.529 58.3284C169.529 50.386 175.21 45.52 181.964 45.52C186.982 45.52 191.201 48.2303 192.947 52.5416C193.063 52.8242 192.915 53.1381 192.631 53.2532L189.959 54.331C189.686 54.4461 189.381 54.3101 189.254 54.0485C187.876 51.1499 185.373 49.2558 181.954 49.2558C177.409 49.2558 173.685 52.6463 173.685 58.4226C173.685 64.8896 178.45 67.3068 182.332 67.3068C186.214 67.3068 189.212 64.8896 189.749 61.3108H183.195C182.89 61.3108 182.648 61.0701 182.648 60.7666V58.6005C182.648 58.297 182.89 58.0563 183.195 58.0563H192.589C193.22 58.0563 193.725 58.5586 193.725 59.1865V69.9752C193.725 70.2787 193.483 70.5194 193.178 70.5194H191.159C190.864 70.5194 190.622 70.2892 190.612 69.9962L190.443 66.2813H190.285C188.55 69.3265 185.678 71.0531 181.638 71.0531C174.569 71.0531 169.519 65.779 169.519 58.3389L169.529 58.3284Z" fill="#DDF4F3"/>
<path d="M216.796 46.0222H219.563C219.899 46.0222 220.173 46.2943 220.173 46.6292V69.9124C220.173 70.2472 219.899 70.5193 219.563 70.5193H216.796C216.459 70.5193 216.186 70.2472 216.186 69.9124V46.6292C216.186 46.2943 216.459 46.0222 216.796 46.0222Z" fill="#DDF4F3"/>
<path d="M231.187 46.0222H234.154C234.533 46.0222 234.88 46.2106 235.09 46.5141C238.983 52.1544 242.854 57.7214 246.746 63.6652H246.81V46.6292C246.81 46.2943 247.083 46.0222 247.42 46.0222H250.186C250.523 46.0222 250.797 46.2943 250.797 46.6292V69.9124C250.797 70.2472 250.523 70.5193 250.186 70.5193H247.22C246.841 70.5193 246.494 70.331 246.284 70.0275C242.444 64.45 238.52 59.019 234.627 53.1589H234.564V69.9124C234.564 70.2472 234.291 70.5193 233.954 70.5193H231.187C230.851 70.5193 230.577 70.2472 230.577 69.9124V46.6292C230.577 46.2943 230.851 46.0222 231.187 46.0222Z" fill="#DDF4F3"/>
<path d="M260.433 63.4559L262.001 62.9118C262.579 62.713 263.2 63.006 263.432 63.5815C264.568 66.3964 266.745 67.4324 268.955 67.4324C271.29 67.4324 273.562 66.3023 273.562 63.9164C273.562 61.5305 271.29 60.8399 269.081 60.1806L266.872 59.49C264.442 58.7365 260.212 57.1669 260.212 52.5521C260.212 47.9373 264.063 45.52 268.576 45.52C272.489 45.52 275.382 47.5083 276.613 50.1871C276.876 50.7627 276.582 51.4324 275.992 51.6731L274.393 52.3219C273.846 52.5416 273.226 52.3009 272.952 51.7777C272.058 50.1139 270.533 49.0988 268.45 49.0988C266.083 49.0988 264.378 50.386 264.378 52.2382C264.378 54.5612 267.093 55.503 268.923 56.0995L271.479 56.9157C273.846 57.6692 277.823 58.8307 277.823 63.4141C277.823 67.9975 274.194 71.0426 268.986 71.0426C264.862 71.0426 261.243 69.0439 259.729 64.9314C259.508 64.335 259.823 63.6757 260.423 63.4664L260.433 63.4559Z" fill="#DDF4F3"/>
<path d="M283.661 49.0568V46.6186C283.661 46.2838 283.935 46.0117 284.271 46.0117H302.408C302.744 46.0117 303.018 46.2838 303.018 46.6186V49.0568C303.018 49.3917 302.744 49.6638 302.408 49.6638H295.317V69.9019C295.317 70.2367 295.044 70.5088 294.707 70.5088H291.94C291.604 70.5088 291.33 70.2367 291.33 69.9019V49.6638H284.271C283.935 49.6638 283.661 49.3917 283.661 49.0568Z" fill="#DDF4F3"/>
<path d="M311.633 46.0222H314.4C314.736 46.0222 315.01 46.2943 315.01 46.6292V69.9124C315.01 70.2472 314.736 70.5193 314.4 70.5193H311.633C311.296 70.5193 311.023 70.2472 311.023 69.9124V46.6292C311.023 46.2943 311.296 46.0222 311.633 46.0222Z" fill="#DDF4F3"/>
<path d="M323.048 49.0568V46.6186C323.048 46.2838 323.322 46.0117 323.658 46.0117H341.795C342.131 46.0117 342.405 46.2838 342.405 46.6186V49.0568C342.405 49.3917 342.131 49.6638 341.795 49.6638H334.704V69.9019C334.704 70.2367 334.431 70.5088 334.094 70.5088H331.327C330.991 70.5088 330.717 70.2367 330.717 69.9019V49.6638H323.658C323.322 49.6638 323.048 49.3917 323.048 49.0568Z" fill="#DDF4F3"/>
<path d="M350.157 61.1223V46.6292C350.157 46.2943 350.431 46.0222 350.768 46.0222H353.534C353.871 46.0222 354.144 46.2943 354.144 46.6292V60.8084C354.144 64.8581 355.691 67.3382 359.415 67.3382C363.139 67.3382 364.685 64.8581 364.685 60.8084V46.6292C364.685 46.2943 364.959 46.0222 365.296 46.0222H368.031C368.367 46.0222 368.641 46.2943 368.641 46.6292V61.1223C368.641 65.5801 367.063 71.0425 359.362 71.0425C351.662 71.0425 350.178 65.9255 350.178 61.1223H350.157Z" fill="#DDF4F3"/>
<path d="M376.415 49.0568V46.6186C376.415 46.2838 376.689 46.0117 377.025 46.0117H395.162C395.498 46.0117 395.772 46.2838 395.772 46.6186V49.0568C395.772 49.3917 395.498 49.6638 395.162 49.6638H389.208C388.587 49.6638 388.071 50.1765 388.071 50.7939V69.9019C388.071 70.2367 387.798 70.5088 387.461 70.5088H384.694C384.358 70.5088 384.084 70.2367 384.084 69.9019V50.7939C384.084 50.1765 383.569 49.6638 382.948 49.6638H377.025C376.689 49.6638 376.415 49.3917 376.415 49.0568Z" fill="#DDF4F3"/>
<path d="M404.388 46.0222H419.085C419.422 46.0222 419.695 46.2943 419.695 46.6292V49.0674C419.695 49.4022 419.422 49.6743 419.085 49.6743H408.365C408.028 49.6743 407.755 49.9464 407.755 50.2812V55.5448C407.755 55.8797 408.028 56.1517 408.365 56.1517H418.454C418.79 56.1517 419.064 56.4238 419.064 56.7587V59.3538C419.064 59.6887 418.79 59.9608 418.454 59.9608H408.365C408.028 59.9608 407.755 60.2329 407.755 60.5677V66.2708C407.755 66.6056 408.028 66.8777 408.365 66.8777H419.401C419.737 66.8777 420.011 67.1498 420.011 67.4847V69.9542C420.011 70.2891 419.737 70.5612 419.401 70.5612H404.388C404.052 70.5612 403.778 70.2891 403.778 69.9542V46.671C403.778 46.3362 404.052 46.0641 404.388 46.0641V46.0222Z" fill="#DDF4F3"/>
<path d="M0.231262 9.28181V24.3819C0.231262 24.7167 0.504782 24.9888 0.841422 24.9888H3.60818C3.94482 24.9888 4.21834 24.7167 4.21834 24.3819V18.6997C4.21834 18.3649 4.49186 18.0928 4.8285 18.0928H14.5595C14.8961 18.0928 15.1696 18.3649 15.1696 18.6997V24.3819C15.1696 24.7167 15.4432 24.9888 15.7798 24.9888H18.5466C18.8832 24.9888 19.1567 24.7167 19.1567 24.3819V9.28181C19.1567 4.43681 15.2012 0.502213 10.3304 0.502213H9.08909C4.21834 0.502213 0.262822 4.43681 0.262822 9.28181H0.231262ZM14.5384 14.2628H4.80746C4.47082 14.2628 4.1973 13.9908 4.1973 13.6559V9.88875C4.1973 6.88547 6.64845 4.44728 9.66769 4.44728C12.6869 4.44728 15.1381 6.88547 15.1381 9.88875V13.6559C15.1381 13.9908 14.8646 14.2628 14.5279 14.2628H14.5384Z" fill="#DDF4F3"/>
<path d="M52.6632 9.28181V24.3819C52.6632 24.7167 52.9367 24.9888 53.2734 24.9888H56.0401C56.3768 24.9888 56.6503 24.7167 56.6503 24.3819V18.6997C56.6503 18.3649 56.9238 18.0928 57.2604 18.0928H66.9914C67.3281 18.0928 67.6016 18.3649 67.6016 18.6997V24.3819C67.6016 24.7167 67.8751 24.9888 68.2117 24.9888H70.9785C71.3151 24.9888 71.5887 24.7167 71.5887 24.3819V9.28181C71.5887 4.43681 67.6332 0.502213 62.7624 0.502213H61.521C56.6503 0.502213 52.6948 4.43681 52.6948 9.28181H52.6632ZM66.9809 14.2628H57.2499C56.9133 14.2628 56.6398 13.9908 56.6398 13.6559V9.88875C56.6398 6.88547 59.0909 4.44728 62.1102 4.44728C65.1294 4.44728 67.5805 6.88547 67.5805 9.88875V13.6559C67.5805 13.9908 67.307 14.2628 66.9704 14.2628H66.9809Z" fill="#DDF4F3"/>
<path d="M162.113 9.28181V24.3819C162.113 24.7167 162.387 24.9888 162.724 24.9888H165.49C165.827 24.9888 166.1 24.7167 166.1 24.3819V18.6997C166.1 18.3649 166.374 18.0928 166.711 18.0928H176.442C176.778 18.0928 177.052 18.3649 177.052 18.6997V24.3819C177.052 24.7167 177.325 24.9888 177.662 24.9888H180.429C180.765 24.9888 181.039 24.7167 181.039 24.3819V9.28181C181.039 4.43681 177.083 0.502213 172.213 0.502213H170.971C166.1 0.502213 162.145 4.43681 162.145 9.28181H162.113ZM176.421 14.2628H166.69C166.353 14.2628 166.079 13.9908 166.079 13.6559V9.88875C166.079 6.88547 168.531 4.44728 171.55 4.44728C174.569 4.44728 177.02 6.88547 177.02 9.88875V13.6559C177.02 13.9908 176.747 14.2628 176.41 14.2628H176.421Z" fill="#DDF4F3"/>
<path d="M221.625 9.28181V24.3819C221.625 24.7167 221.898 24.9888 222.235 24.9888H225.002C225.338 24.9888 225.612 24.7167 225.612 24.3819V18.6997C225.612 18.3649 225.885 18.0928 226.222 18.0928H235.953C236.29 18.0928 236.563 18.3649 236.563 18.6997V24.3819C236.563 24.7167 236.837 24.9888 237.173 24.9888H239.94C240.277 24.9888 240.55 24.7167 240.55 24.3819V9.28181C240.55 4.43681 236.595 0.502213 231.724 0.502213H230.483C225.612 0.502213 221.656 4.43681 221.656 9.28181H221.625ZM235.943 14.2628H226.212C225.875 14.2628 225.601 13.9908 225.601 13.6559V9.88875C225.601 6.88547 228.053 4.44728 231.072 4.44728C234.091 4.44728 236.542 6.88547 236.542 9.88875V13.6559C236.542 13.9908 236.269 14.2628 235.932 14.2628H235.943Z" fill="#DDF4F3"/>
<path d="M51.748 54.8018V69.9019C51.748 70.2368 52.0215 70.5089 52.3581 70.5089H55.1249C55.4615 70.5089 55.7351 70.2368 55.7351 69.9019V64.2198C55.7351 63.8849 56.0086 63.6128 56.3452 63.6128H66.0762C66.4129 63.6128 66.6864 63.8849 66.6864 64.2198V69.9019C66.6864 70.2368 66.9599 70.5089 67.2965 70.5089H70.0633C70.3999 70.5089 70.6734 70.2368 70.6734 69.9019V54.8018C70.6734 49.9568 66.7179 46.0222 61.8472 46.0222H60.6058C55.7351 46.0222 51.7795 49.9568 51.7795 54.8018H51.748ZM66.0552 59.7829H56.3242C55.9875 59.7829 55.714 59.5108 55.714 59.176V55.4088C55.714 52.4055 58.1652 49.9673 61.1844 49.9673C64.2037 49.9673 66.6548 52.4055 66.6548 55.4088V59.176C66.6548 59.5108 66.3813 59.7829 66.0447 59.7829H66.0552Z" fill="#DDF4F3"/>
</g>
<defs>
<clipPath id="clip0_4842_265">
<rect width="420" height="71.0426" fill="white"/>
</clipPath>
</defs>
</svg>
