<svg width="164" height="164" viewBox="0 0 164 164" fill="none" xmlns="http://www.w3.org/2000/svg">
<g clip-path="url(#clip0_4851_2258)">
<path d="M60.2051 31.7883C47.3362 31.7883 43.9082 40.7798 43.9082 49.2654V75.3406C43.9082 76.0149 44.4701 76.5769 45.1445 76.5769H48.7411C49.4154 76.5769 49.9774 76.0149 49.9774 75.3406V64.2699C49.9774 63.5955 50.5394 63.0336 51.2137 63.0336H69.028C69.7023 63.0336 70.2643 63.5955 70.2643 64.2699V75.3406C70.2643 76.0149 70.8263 76.5769 71.5006 76.5769H75.0972C75.7716 76.5769 76.3335 76.0149 76.3335 75.3406V49.2654C76.3335 39.8806 72.3436 31.7883 60.2051 31.7883ZM70.2643 56.0277C70.2643 56.7021 69.7023 57.2641 69.028 57.2641H51.2137C50.5394 57.2641 49.9774 56.7021 49.9774 56.0277V49.715C49.9774 41.7351 53.293 37.408 60.0928 37.408C66.8925 37.408 70.2643 41.7351 70.2643 49.715V56.0277Z" fill="#B0D6D4"/>
<path d="M104.9 31.7883C92.0311 31.7883 88.6031 40.7798 88.6031 49.2654V75.3406C88.6031 76.0149 89.1651 76.5769 89.8394 76.5769H93.436C94.1103 76.5769 94.6723 76.0149 94.6723 75.3406V64.2699C94.6723 63.5955 95.2343 63.0336 95.9086 63.0336H113.723C114.397 63.0336 114.959 63.5955 114.959 64.2699V75.3406C114.959 76.0149 115.521 76.5769 116.196 76.5769H119.792C120.466 76.5769 121.028 76.0149 121.028 75.3406V49.2654C121.028 39.8806 117.038 31.7883 104.9 31.7883ZM114.959 56.0277C114.959 56.7021 114.397 57.2641 113.723 57.2641H95.9086C95.2343 57.2641 94.6723 56.7021 94.6723 56.0277V49.715C94.6723 41.7351 97.9879 37.408 104.788 37.408C111.587 37.408 114.959 41.7351 114.959 49.715V56.0277Z" fill="#B0D6D4"/>
<path d="M44.2079 93.9604H55.8406C56.5149 93.9604 57.0769 94.5224 57.0769 95.1967V130.994C57.0769 131.668 57.6388 132.23 58.3132 132.23H61.9098C62.5841 132.23 63.1461 131.668 63.1461 130.994V95.1967C63.1461 94.5224 63.7081 93.9604 64.3824 93.9604H76.0151C76.6894 93.9604 77.2514 93.3985 77.2514 92.7241V89.6333C77.2514 88.9589 76.6894 88.397 76.0151 88.397H44.2079C43.5335 88.397 42.9716 88.9589 42.9716 89.6333V92.7241C42.9716 93.3985 43.5335 93.9604 44.2079 93.9604Z" fill="#B0D6D4"/>
<path d="M109.096 93.9604H116.982C117.657 93.9604 118.219 93.3985 118.219 92.7241V89.6333C118.219 88.9589 117.657 88.397 116.982 88.397H92.668C91.9936 88.397 91.4316 88.9589 91.4316 89.6333V92.7241C91.4316 93.3985 91.9936 93.9604 92.668 93.9604H100.554C101.229 93.9604 101.791 94.5224 101.791 95.1967V125.43C101.791 126.105 101.229 126.667 100.554 126.667H92.668C91.9936 126.667 91.4316 127.229 91.4316 127.903V130.994C91.4316 131.668 91.9936 132.23 92.668 132.23H116.982C117.657 132.23 118.219 131.668 118.219 130.994V127.903C118.219 127.229 117.657 126.667 116.982 126.667H109.096C108.422 126.667 107.86 126.105 107.86 125.43V95.1967C107.86 94.5224 108.422 93.9604 109.096 93.9604Z" fill="#B0D6D4"/>
<path d="M81.9906 164C36.7899 164 0 127.21 0 81.9906C0 36.7712 36.7899 0 81.9906 0C127.191 0 164 36.7899 164 81.9906C164 127.191 127.21 164 81.9906 164ZM81.9906 5.61965C39.8808 5.61965 5.61965 39.8808 5.61965 81.9906C5.61965 124.101 39.8808 158.38 81.9906 158.38C124.101 158.38 158.38 124.119 158.38 81.9906C158.38 39.862 124.119 5.61965 81.9906 5.61965Z" fill="#B0D6D4"/>
</g>
<defs>
<clipPath id="clip0_4851_2258">
<rect width="164" height="164" fill="white"/>
</clipPath>
</defs>
</svg>
